<svg width="137" height="34" viewBox="0 0 137 34" fill="none" xmlns="http://www.w3.org/2000/svg">
<path d="M8.37 7C11.39 7 13.7 7.55 15.3 8.65C16.92 9.75 17.73 11.47 17.73 13.81C17.73 15.03 17.51 16.08 17.07 16.96C16.65 17.82 16.03 18.53 15.21 19.09C14.39 19.63 13.39 20.03 12.21 20.29C11.03 20.55 9.68 20.68 8.16 20.68H6.27V28H2.49V7.51C3.37 7.31 4.34 7.18 5.4 7.12C6.48 7.04 7.47 7 8.37 7ZM8.64 10.27C7.68 10.27 6.89 10.3 6.27 10.36V17.44H8.1C9.92 17.44 11.32 17.19 12.3 16.69C13.28 16.17 13.77 15.2 13.77 13.78C13.77 13.1 13.64 12.53 13.38 12.07C13.12 11.61 12.76 11.25 12.3 10.99C11.84 10.73 11.29 10.55 10.65 10.45C10.03 10.33 9.36 10.27 8.64 10.27ZM26.0234 25.45C27.1434 25.45 27.9934 25.39 28.5734 25.27V21.25C28.3734 21.19 28.0834 21.13 27.7034 21.07C27.3234 21.01 26.9034 20.98 26.4434 20.98C26.0434 20.98 25.6334 21.01 25.2134 21.07C24.8134 21.13 24.4434 21.24 24.1034 21.4C23.7834 21.56 23.5234 21.79 23.3234 22.09C23.1234 22.37 23.0234 22.73 23.0234 23.17C23.0234 24.03 23.2934 24.63 23.8334 24.97C24.3734 25.29 25.1034 25.45 26.0234 25.45ZM25.7234 11.92C26.9234 11.92 27.9334 12.07 28.7534 12.37C29.5734 12.67 30.2234 13.09 30.7034 13.63C31.2034 14.17 31.5534 14.83 31.7534 15.61C31.9734 16.37 32.0834 17.21 32.0834 18.13V27.64C31.5234 27.76 30.6734 27.9 29.5334 28.06C28.4134 28.24 27.1434 28.33 25.7234 28.33C24.7834 28.33 23.9234 28.24 23.1434 28.06C22.3634 27.88 21.6934 27.59 21.1334 27.19C20.5934 26.79 20.1634 26.27 19.8434 25.63C19.5434 24.99 19.3934 24.2 19.3934 23.26C19.3934 22.36 19.5634 21.6 19.9034 20.98C20.2634 20.36 20.7434 19.86 21.3434 19.48C21.9434 19.08 22.6334 18.8 23.4134 18.64C24.2134 18.46 25.0434 18.37 25.9034 18.37C26.3034 18.37 26.7234 18.4 27.1634 18.46C27.6034 18.5 28.0734 18.58 28.5734 18.7V18.1C28.5734 17.68 28.5234 17.28 28.4234 16.9C28.3234 16.52 28.1434 16.19 27.8834 15.91C27.6434 15.61 27.3134 15.38 26.8934 15.22C26.4934 15.06 25.9834 14.98 25.3634 14.98C24.5234 14.98 23.7534 15.04 23.0534 15.16C22.3534 15.28 21.7834 15.42 21.3434 15.58L20.8934 12.64C21.3534 12.48 22.0234 12.32 22.9034 12.16C23.7834 12 24.7234 11.92 25.7234 11.92ZM47.5088 14.86C47.1088 15.28 46.5788 15.87 45.9188 16.63C45.2788 17.39 44.5888 18.24 43.8488 19.18C43.1088 20.1 42.3588 21.07 41.5988 22.09C40.8588 23.09 40.1888 24.05 39.5888 24.97H47.6888V28H35.2087V25.75C35.6488 24.95 36.1988 24.08 36.8588 23.14C37.5188 22.2 38.1988 21.26 38.8988 20.32C39.5988 19.36 40.2888 18.45 40.9688 17.59C41.6688 16.73 42.2888 15.98 42.8288 15.34H35.5988V12.31H47.5088V14.86ZM62.04 14.86C61.64 15.28 61.11 15.87 60.45 16.63C59.81 17.39 59.12 18.24 58.38 19.18C57.64 20.1 56.89 21.07 56.13 22.09C55.39 23.09 54.72 24.05 54.12 24.97H62.22V28H49.74V25.75C50.18 24.95 50.73 24.08 51.39 23.14C52.05 22.2 52.73 21.26 53.43 20.32C54.13 19.36 54.82 18.45 55.5 17.59C56.2 16.73 56.82 15.98 57.36 15.34H50.13V12.31H62.04V14.86Z" fill="black"/>
<path d="M71.7113 28C70.2113 24.76 68.7613 21.37 67.3613 17.83C65.9813 14.29 64.6913 10.75 63.4913 7.21H67.6613C68.1413 8.61 68.6313 10.04 69.1313 11.5C69.6313 12.96 70.1313 14.4 70.6313 15.82C71.1313 17.22 71.6313 18.58 72.1313 19.9C72.6313 21.22 73.1213 22.43 73.6013 23.53C74.0613 22.43 74.5413 21.23 75.0413 19.93C75.5413 18.61 76.0413 17.24 76.5413 15.82C77.0613 14.4 77.5713 12.96 78.0713 11.5C78.5713 10.04 79.0513 8.61 79.5113 7.21H83.5613C82.3413 10.75 81.0413 14.29 79.6613 17.83C78.2813 21.37 76.8413 24.76 75.3413 28H71.7113ZM112.944 27.52C112.244 27.7 111.334 27.88 110.214 28.06C109.094 28.26 107.864 28.36 106.524 28.36C105.264 28.36 104.204 28.18 103.344 27.82C102.504 27.46 101.824 26.96 101.304 26.32C100.804 25.68 100.444 24.92 100.224 24.04C100.004 23.14 99.8937 22.16 99.8937 21.1V12.31H103.524V20.53C103.524 22.21 103.764 23.41 104.244 24.13C104.744 24.85 105.604 25.21 106.824 25.21C107.264 25.21 107.724 25.19 108.204 25.15C108.704 25.11 109.074 25.06 109.314 25V12.31H112.944V27.52ZM123.024 28.3C121.944 28.28 121.044 28.16 120.324 27.94C119.624 27.72 119.064 27.41 118.644 27.01C118.224 26.59 117.924 26.08 117.744 25.48C117.584 24.86 117.504 24.16 117.504 23.38V5.32L121.134 4.72V22.69C121.134 23.13 121.164 23.5 121.224 23.8C121.304 24.1 121.434 24.36 121.614 24.58C121.794 24.78 122.034 24.94 122.334 25.06C122.654 25.16 123.054 25.24 123.534 25.3L123.024 28.3ZM126.29 8.17L129.92 7.57V12.31H135.5V15.34H129.92V21.73C129.92 22.99 130.12 23.89 130.52 24.43C130.92 24.97 131.6 25.24 132.56 25.24C133.22 25.24 133.8 25.17 134.3 25.03C134.82 24.89 135.23 24.76 135.53 24.64L136.13 27.52C135.71 27.7 135.16 27.88 134.48 28.06C133.8 28.26 133 28.36 132.08 28.36C130.96 28.36 130.02 28.21 129.26 27.91C128.52 27.61 127.93 27.18 127.49 26.62C127.05 26.04 126.74 25.35 126.56 24.55C126.38 23.73 126.29 22.8 126.29 21.76V8.17Z" fill="#17994D"/>
<path d="M89.5 17.9641C88.2794 15.6269 86.7156 14.7887 85.2812 14.8309V11.9031C85.2812 9.57317 87.17 7.68438 89.5 7.68438C91.83 7.68438 93.7188 9.57317 93.7188 11.9031V13.0281H95.4062V11.9031C95.4062 8.64119 92.7619 5.99688 89.5 5.99688C86.2381 5.99688 83.5938 8.64119 83.5938 11.9031V15.2978C82.2466 16.0234 81.2734 17.4831 81.2734 18.8978C81.2734 23.8028 89.5 29.0031 89.5 29.0031C89.5 29.0031 97.7266 23.8028 97.7266 18.9062C97.7266 15.6297 92.5488 12.1253 89.5 17.9641ZM90.0625 23.0547V24.5594H88.9375V23.0547C88.0588 22.744 87.5984 21.7799 87.909 20.9012C88.2197 20.0225 89.1838 19.562 90.0625 19.8727C90.9412 20.1834 91.4016 21.1475 91.091 22.0262C90.9211 22.5068 90.5431 22.8848 90.0625 23.0547Z" fill="#17994D"/>
</svg>
